<?xml version="1.0" standalone="no"?>
<!DOCTYPE svg PUBLIC "-//W3C//DTD SVG 20010904//EN"
 "http://www.w3.org/TR/2001/REC-SVG-20010904/DTD/svg10.dtd">
<svg version="1.0" xmlns="http://www.w3.org/2000/svg"
 width="400.000000pt" height="400.000000pt" viewBox="0 0 400.000000 400.000000"
 preserveAspectRatio="xMidYMid meet">
<metadata>
Created by potrace 1.14, written by Peter Selinger 2001-2017
</metadata>
<g transform="translate(0.000000,400.000000) scale(0.100000,-0.100000)"
fill="#000000" stroke="none">
<path d="M0 2000 l0 -2000 2000 0 2000 0 0 2000 0 2000 -2000 0 -2000 0 0
-2000z m2418 -39 l2 -1161 -90 0 -90 0 0 1199 0 1199 88 -37 87 -38 3 -1162z
m383 983 c5 -3 9 -461 9 -1075 l0 -1069 -90 0 -90 0 0 1110 0 1109 81 -34 c45
-20 85 -38 90 -41z m316 -138 l78 -35 3 -986 2 -986 -87 3 -88 3 -3 1018 c-1
648 1 1017 8 1017 5 0 44 -15 87 -34z m-2222 -25 l85 -40 0 -425 0 -426 -90 0
-90 0 0 465 c0 256 2 465 5 465 2 0 43 -18 90 -39z m388 -175 l75 -34 7 -133
c3 -74 5 -226 3 -339 l-3 -205 -87 -3 -88 -3 0 376 c0 229 4 375 9 375 6 0 43
-15 84 -34z m404 -179 l73 -32 0 -252 0 -253 -90 0 -90 0 0 291 c0 272 1 291
17 284 10 -3 50 -21 90 -38z"/>
</g>
</svg>
