<svg class="icon" width="41" height="41" viewBox="0 0 100 100" fill="none" xmlns="http://www.w3.org/2000/svg">
    <rect x="2.5" y="2.5" width="95" height="95" rx="47.5" fill="#1C1D20" stroke="#F9BC07" stroke-width="5"/>
    <path d="M22 30.6944L55.0291 22V22C55.0291 23.997 53.667 25.7364 51.7282 26.2151L26.1125 32.5402L22 30.6944Z" fill="#6D6F6E"/>
    <path d="M30.8402 34.6774L53.0976 29.2247C54.0786 28.9844 55.0243 29.7302 55.0192 30.7402V30.7402C55.0156 31.4623 54.5145 32.0866 53.8103 32.2463L34.9526 36.5231L30.8402 34.6774Z" fill="#6D6F6E"/>
    <path d="M39.907 38.7089L53.2902 36.0007C54.1891 35.8188 55.0292 36.506 55.0292 37.4231V37.4231C55.0292 38.1288 54.5214 38.7322 53.8261 38.8529L44.0195 40.5546L39.907 38.7089Z" fill="#6D6F6E"/>
    <path d="M22 49.8588C22 51.0064 22.9303 51.9367 24.0779 51.9367V51.9367C25.2275 51.9367 26.1587 51.0032 26.1558 49.8536L26.1125 32.5402L22 30.6944V49.8588Z" fill="#FEFEFE"/>
    <path d="M30.8402 49.8595C30.8402 51.0067 31.7702 51.9367 32.9174 51.9367V51.9367C34.0672 51.9367 34.9983 51.0027 34.9946 49.8529L34.9526 36.5231L30.8402 34.6774V49.8595Z" fill="#FEFEFE"/>
    <path d="M39.907 49.8672C39.907 51.0102 40.8335 51.9367 41.9765 51.9367V51.9367C43.1217 51.9367 44.0492 51.0066 44.0459 49.8613L44.0195 40.5546L39.907 38.7089V49.8672Z" fill="#FEFEFE"/>
    <path d="M55.0291 22V22C57.5654 23.101 59.2064 25.6023 59.2064 28.3672V74.8958C59.2064 76.0579 58.2643 77 57.1022 77V77C55.9396 77 54.9973 76.0572 54.998 74.8946L55.0291 22Z" fill="#FAC224"/>
    <path d="M63.8207 29.2225C63.8207 27.7143 65.3653 26.6994 66.7496 27.2981V27.2981C67.5172 27.63 68.0141 28.3863 68.0141 29.2225V74.8871C68.0141 76.0451 67.0754 76.9838 65.9174 76.9838V76.9838C64.7595 76.9838 63.8207 76.0451 63.8207 74.8871V29.2225Z" fill="#FAC224"/>
    <path d="M72.9199 33.2566C72.9199 31.7409 74.4736 30.7221 75.8637 31.3262V31.3262C76.6323 31.6603 77.1295 32.4185 77.1295 33.2566V74.879C77.1295 76.0415 76.1872 76.9838 75.0247 76.9838V76.9838C73.8623 76.9838 72.9199 76.0415 72.9199 74.879V33.2566Z" fill="#FAC224"/>
</svg>